REM DIRINDEX 1\2,1\4,1\3\5,1\3\6,1\3\7
REM DIRNAME cjc082,folder01,folder02,folder03,folder04,folder05,folder06
TITLE ""
FILE "CD3Track52.mp3" MP3
  TRACK 01 AUDIO
    TITLE "0:"
    INDEX 01 00:00:00
  TRACK 02 AUDIO
    TITLE "4:cjc082_3308"
    INDEX 01 00:00:29
  TRACK 03 AUDIO
    TITLE "0:"
    INDEX 01 00:04:48
  TRACK 04 AUDIO
    TITLE "5:cjc082_3309"
    INDEX 01 00:05:18
  TRACK 05 AUDIO
    TITLE "0:"
    INDEX 01 00:06:28
  TRACK 06 AUDIO
    TITLE "6:cjc082_3310"
    INDEX 01 00:07:02
  TRACK 07 AUDIO
    TITLE "0:"
    INDEX 01 00:09:51
  TRACK 08 AUDIO
    TITLE "5:cjc082_3311"
    INDEX 01 00:10:25
  TRACK 09 AUDIO
    TITLE "0:"
    INDEX 01 00:11:40
  TRACK 10 AUDIO
    TITLE "6:cjc082_3312"
    INDEX 01 00:12:14
  TRACK 11 AUDIO
    TITLE "0:"
    INDEX 01 00:14:11
  TRACK 12 AUDIO
    TITLE "5:cjc082_3313"
    INDEX 01 00:14:58
  TRACK 13 AUDIO
    TITLE "0:"
    INDEX 01 00:16:20
  TRACK 14 AUDIO
    TITLE "6:cjc082_3314"
    INDEX 01 00:16:69
  TRACK 15 AUDIO
    TITLE "0:"
    INDEX 01 00:18:19
  TRACK 16 AUDIO
    TITLE "5:cjc082_3315"
    INDEX 01 00:18:66
  TRACK 17 AUDIO
    TITLE "0:"
    INDEX 01 00:19:71
  TRACK 18 AUDIO
    TITLE "6:cjc082_3316"
    INDEX 01 00:20:47
  TRACK 19 AUDIO
    TITLE "0:"
    INDEX 01 00:22:70
  TRACK 20 AUDIO
    TITLE "5:cjc082_3317"
    INDEX 01 00:23:42
  TRACK 21 AUDIO
    TITLE "0:"
    INDEX 01 00:24:49
  TRACK 22 AUDIO
    TITLE "6:cjc082_3318"
    INDEX 01 00:25:21
  TRACK 23 AUDIO
    TITLE "0:"
    INDEX 01 00:27:06
  TRACK 24 AUDIO
    TITLE "5:cjc082_3319"
    INDEX 01 00:27:55
  TRACK 25 AUDIO
    TITLE "0:"
    INDEX 01 00:29:03
  TRACK 26 AUDIO
    TITLE "6:cjc082_3320"
    INDEX 01 00:29:50
  TRACK 27 AUDIO
    TITLE "0:"
    INDEX 01 00:32:43
  TRACK 28 AUDIO
    TITLE "5:cjc082_3321"
    INDEX 01 00:33:15
  TRACK 29 AUDIO
    TITLE "0:"
    INDEX 01 00:34:30
  TRACK 30 AUDIO
    TITLE "6:cjc082_3322"
    INDEX 01 00:35:08
  TRACK 31 AUDIO
    TITLE "0:"
    INDEX 01 00:37:30
  TRACK 32 AUDIO
    TITLE "5:cjc082_3323"
    INDEX 01 00:38:04
  TRACK 33 AUDIO
    TITLE "0:"
    INDEX 01 00:39:17
  TRACK 34 AUDIO
    TITLE "6:cjc082_3324"
    INDEX 01 00:39:62
  TRACK 35 AUDIO
    TITLE "0:"
    INDEX 01 00:41:40
  TRACK 36 AUDIO
    TITLE "5:cjc082_3325"
    INDEX 01 00:42:14
  TRACK 37 AUDIO
    TITLE "0:"
    INDEX 01 00:43:31
  TRACK 38 AUDIO
    TITLE "6:cjc082_3326"
    INDEX 01 00:44:03
  TRACK 39 AUDIO
    TITLE "0:"
    INDEX 01 00:46:06
  TRACK 40 AUDIO
    TITLE "5:cjc082_3327"
    INDEX 01 00:46:54
  TRACK 41 AUDIO
    TITLE "0:"
    INDEX 01 00:48:02
  TRACK 42 AUDIO
    TITLE "6:cjc082_3328"
    INDEX 01 00:48:48
  TRACK 43 AUDIO
    TITLE "0:"
    INDEX 01 00:50:03
  TRACK 44 AUDIO
    TITLE "5:cjc082_3329"
    INDEX 01 00:50:54
  TRACK 45 AUDIO
    TITLE "0:"
    INDEX 01 00:52:28
  TRACK 46 AUDIO
    TITLE "6:cjc082_3330"
    INDEX 01 00:53:02
  TRACK 47 AUDIO
    TITLE "0:"
    INDEX 01 00:55:48
  TRACK 48 AUDIO
    TITLE "5:cjc082_3331"
    INDEX 01 00:56:22
  TRACK 49 AUDIO
    TITLE "0:"
    INDEX 01 00:58:36
  TRACK 50 AUDIO
    TITLE "6:cjc082_3332"
    INDEX 01 00:59:08
  TRACK 51 AUDIO
    TITLE "0:"
    INDEX 01 01:01:03
  TRACK 52 AUDIO
    TITLE "5:cjc082_3333"
    INDEX 01 01:01:50
  TRACK 53 AUDIO
    TITLE "0:"
    INDEX 01 01:03:31
  TRACK 54 AUDIO
    TITLE "6:cjc082_3334"
    INDEX 01 01:04:03
  TRACK 55 AUDIO
    TITLE "0:"
    INDEX 01 01:05:36
  TRACK 56 AUDIO
    TITLE "5:cjc082_3335"
    INDEX 01 01:06:10
  TRACK 57 AUDIO
    TITLE "0:"
    INDEX 01 01:07:29
  TRACK 58 AUDIO
    TITLE "6:cjc082_3336"
    INDEX 01 01:08:03
  TRACK 59 AUDIO
    TITLE "0:"
    INDEX 01 01:09:34
  TRACK 60 AUDIO
    TITLE "5:cjc082_3337"
    INDEX 01 01:10:08
  TRACK 61 AUDIO
    TITLE "0:"
    INDEX 01 01:11:23
  TRACK 62 AUDIO
    TITLE "6:cjc082_3338"
    INDEX 01 01:11:70
  TRACK 63 AUDIO
    TITLE "0:"
    INDEX 01 01:13:67
  TRACK 64 AUDIO
    TITLE "5:cjc082_3339"
    INDEX 01 01:14:39
  TRACK 65 AUDIO
    TITLE "0:"
    INDEX 01 01:15:64
  TRACK 66 AUDIO
    TITLE "6:cjc082_3340"
    INDEX 01 01:16:34
  TRACK 67 AUDIO
    TITLE "0:"
    INDEX 01 01:18:54
  TRACK 68 AUDIO
    TITLE "5:cjc082_3341"
    INDEX 01 01:19:21
  TRACK 69 AUDIO
    TITLE "0:"
    INDEX 01 01:20:40
  TRACK 70 AUDIO
    TITLE "6:cjc082_3342"
    INDEX 01 01:21:08
  TRACK 71 AUDIO
    TITLE "0:"
    INDEX 01 01:22:70
  TRACK 72 AUDIO
    TITLE "5:cjc082_3343"
    INDEX 01 01:23:38
  TRACK 73 AUDIO
    TITLE "0:"
    INDEX 01 01:25:72
  TRACK 74 AUDIO
    TITLE "6:cjc082_3344"
    INDEX 01 01:26:40
  TRACK 75 AUDIO
    TITLE "0:"
    INDEX 01 01:28:39
  TRACK 76 AUDIO
    TITLE "5:cjc082_3345"
    INDEX 01 01:29:09
  TRACK 77 AUDIO
    TITLE "0:"
    INDEX 01 01:30:20
  TRACK 78 AUDIO
    TITLE "6:cjc082_3346"
    INDEX 01 01:30:69
  TRACK 79 AUDIO
    TITLE "0:"
    INDEX 01 01:32:13
  TRACK 80 AUDIO
    TITLE "7:cjc082_3347"
    INDEX 01 01:33:52
  TRACK 81 AUDIO
    TITLE "0:"
    INDEX 01 01:44:19
  TRACK 82 AUDIO
    TITLE "4:cjc082_3348"
    INDEX 01 01:46:72
  TRACK 83 AUDIO
    TITLE "0:"
    INDEX 01 01:50:04
